<svg xmlns="http://www.w3.org/2000/svg" version="1.1" xmlns:xlink="http://www.w3.org/1999/xlink" xmlns:svgjs="http://svgjs.com/svgjs" width="100%" height="100%"><svg width="100%" height="100%" viewBox="0 0 124 124" version="1.1" xmlns="http://www.w3.org/2000/svg" xmlns:xlink="http://www.w3.org/1999/xlink" xml:space="preserve" xmlns:serif="http://www.serif.com/" style="fill-rule:evenodd;clip-rule:evenodd;stroke-linejoin:round;stroke-miterlimit:2;">
    <g transform="matrix(1,0,0,1,-174,0)">
        <g id="SvgjsG1000" transform="matrix(1,0,0,1.31915,0,0)">
            <rect x="174" y="0" width="124" height="94" style="fill:none;"></rect>
            <g transform="matrix(2.43221,0,0,1.84377,87.2412,-45.0705)">
                <path d="M67.982,28.85L67.982,28.85L65.497,28.85L54.342,28.85L54.342,29.269L57.909,29.269L61.433,41.155L55.7,61.178L46.689,29.269C46.689,29.269 51.196,29.269 51.196,29.269L51.196,28.85L35.671,28.85L35.671,29.269L39.237,29.269L51.618,71.022L53.084,71.022L61.612,41.758L70.289,71.022L71.756,71.022L83.923,29.268L86.653,29.269L86.653,28.85L79.31,28.85L79.31,29.268L83.507,29.269L74.372,61.178L65.36,29.269L67.71,29.269L67.982,29.269L67.982,29.269L69.868,29.269L69.868,28.85L67.982,28.85Z"></path>
            </g>
        </g>
    </g>
</svg><style>@media (prefers-color-scheme: light) { :root { filter: none; } }
@media (prefers-color-scheme: dark) { :root { filter: none; } }
</style></svg>