<?xml version="1.0" encoding="UTF-8" standalone="no"?><!DOCTYPE svg PUBLIC "-//W3C//DTD SVG 1.1//EN" "http://www.w3.org/Graphics/SVG/1.1/DTD/svg11.dtd"><svg width="100%" height="100%" viewBox="0 0 517 392" version="1.1" xmlns="http://www.w3.org/2000/svg" xmlns:xlink="http://www.w3.org/1999/xlink" xml:space="preserve" xmlns:serif="http://www.serif.com/" style="fill-rule:evenodd;clip-rule:evenodd;stroke-linejoin:round;stroke-miterlimit:2;"><rect id="logo" x="0" y="0" width="516.667" height="391.667" style="fill:none;"/><g><g><path d="M249.971,327.735c-0.2,-0.181 -0.327,-0.435 -0.363,-0.708c-0.326,-3.555 0.091,-7.092 0.907,-10.031c0.399,-1.451 1.07,-2.557 1.216,-4.063c0.054,-0.653 0.054,-1.306 -0.019,-1.959c-0.344,-2.902 -2.956,-5.152 -5.714,-4.19c-1.106,0.381 -5.042,2.866 -4.027,8.689c0.49,2.829 2.431,5.859 3.701,8.471c-5.206,-4.444 -10.902,-8.816 -16.942,-13.133c-0.508,-0.363 -0.944,-0.853 -1.234,-1.415c-2.975,-5.823 -5.115,-13.006 -5.079,-19.555c0.018,-6.022 2.286,-21.676 0.435,-26.157c-1.07,-2.594 -3.809,-4.589 -7.401,-3.972c-5.623,0.961 -8.217,6.947 -8.743,9.287c-2.013,8.943 -0.29,18.92 5.152,26.302c2.285,3.102 5.115,5.769 7.328,8.907c-3.428,-2.34 -6.947,-4.662 -10.539,-7.02c-6.512,-4.263 -13.677,-9.215 -21.822,-15.201c-0.072,-0.054 -0.127,-0.109 -0.199,-0.163c-0.327,-0.272 -0.617,-0.617 -0.835,-0.98c-3.519,-5.931 -3.791,-13.931 -2.376,-20.679c0.98,-4.662 3.283,-9.451 4.608,-14.004c3.138,-10.774 2.775,-23.907 -1.923,-35.372c-0.871,-2.104 -2.358,-4.226 -4.263,-4.752c-2.957,-0.798 -6.403,3.446 -7.238,4.752c-6.675,10.376 -9.868,22.657 -8.562,34.919c1.234,11.682 6.386,22.91 14.385,31.508c-12.462,-9.396 -25.631,-20.08 -37.313,-30.819c-0.381,-0.344 -0.689,-0.762 -0.889,-1.233c-5.133,-11.61 -0.363,-20.716 3.574,-27.645c3.9,-6.875 7.691,-13.187 10.557,-20.552c2.866,-7.383 4.19,-15.273 0.744,-22.384c-0.907,-1.887 -2.159,-4.317 -4.263,-4.317c-1.415,-0 -3.447,1.269 -4.535,2.158c-10.158,8.344 -16.38,19.555 -18.339,32.561c-1.85,12.298 1.868,26.248 8.435,37.004c-11.882,-11.428 -22.04,-23.508 -30.166,-37.621c-0.835,-1.469 -1.27,-3.138 -1.234,-4.825c0.127,-5.787 2.377,-11.845 5.424,-15.147c2.104,-2.267 5.623,-5.242 8.036,-7.165c9.178,-7.237 17.123,-15.636 22.946,-26.629c1.071,-2.031 2.358,-5.278 0.871,-7.02c-1.052,-1.233 -2.866,-1.414 -4.48,-1.324c-5.116,0.309 -9.687,2.358 -14.276,4.644c-4.027,1.995 -7.873,4.353 -11.192,7.383c-6.077,5.532 -9.397,12.788 -10.721,20.643c-1.07,6.33 -0.852,13.169 -0.471,19.735c-2.758,-5.786 -5.225,-11.899 -7.347,-18.466c-2.63,-8.09 -4.462,-16.271 -5.623,-24.488c-0.037,-0.308 -0.018,-0.617 0.09,-0.907c1.234,-3.628 4.553,-7.256 7.782,-9.523c4.463,-3.138 8.816,-4.698 13.786,-6.911c5.352,-2.377 10.576,-4.717 15.383,-8.073c3.609,-2.521 6.784,-5.46 8.616,-9.468c0.961,-2.141 1.379,-4.699 0.326,-6.785c-1.505,-2.993 -4.915,-3.954 -8.271,-4.063c-10.612,-0.381 -20.788,4.027 -27.899,11.918c-5.823,6.458 -9.632,16.289 -10.775,25.468c-4.299,-35.173 7.51,-45.077 11.084,-48.56c4.988,-4.825 10.484,-10.103 13.641,-16.289c2.593,-5.061 4.027,-9.814 4.698,-15.455c0.816,-6.875 0.435,-13.459 -2.449,-19.754c-0.998,-2.177 -2.902,-4.498 -4.916,-5.786c-2.431,-1.542 -5.333,-1.687 -8.145,-1.071c-2.811,0.617 -5.188,1.832 -7.491,3.556c-8.163,6.076 -14.476,16.942 -15.999,27.844c-1.179,8.417 0.671,15.981 2.576,22.965c1.868,6.856 2.63,9.124 4.317,19.282c0.326,2.013 0.417,4.063 0.272,6.095c-0.454,6.222 -0.599,12.498 -0.363,18.774c-0.871,-3.12 -1.433,-6.167 -2.159,-8.598c-1.814,-6.113 -3.918,-12.135 -6.584,-17.922c-4.735,-10.249 -11.483,-19.844 -20.752,-26.302c-1.705,-1.197 -3.864,-2.322 -5.786,-1.524c-1.27,0.526 -2.086,1.742 -2.739,2.939c-2.848,5.188 -4.154,11.246 -3.465,17.142c0.689,5.877 3.392,11.536 7.709,15.6c3.574,3.374 8.09,5.55 12.607,7.473c4.517,1.923 9.161,3.682 13.278,6.367c2.522,1.651 4.735,3.773 6.621,6.131c0.508,0.653 0.998,1.324 1.415,1.977c0.689,12.734 2.884,25.523 6.929,37.948c0.109,0.363 0.236,0.708 0.345,1.052c-5.659,-9.559 -11.718,-18.883 -18.774,-27.445c-8.598,-10.43 -18.775,-19.754 -30.692,-26.139c-1.379,-0.744 -2.957,-1.451 -4.463,-1.034c-2.031,0.581 -3.265,3.392 -3.718,5.46c-1.56,7.274 -0.69,14.512 1.85,21.514c2.539,6.983 7.872,13.387 14.312,17.105c5.061,2.939 10.14,4.1 15.727,5.823c9.596,2.975 18.811,7.22 27.318,12.571c1.088,0.689 1.941,1.705 2.431,2.902c5.605,13.369 12.679,24.978 21.023,35.662c-17.649,-12.316 -43.879,-23.2 -67.714,-24.343c-4.354,-0.199 -7.782,1.506 -8.508,3.338c-0.762,1.905 -0.435,3.501 0.109,5.478c2.848,10.285 8.272,20.207 16.271,27.282c8,7.074 17.686,10.738 28.153,8.58c4.97,-1.016 10.412,-3.066 14.947,-5.333c4.535,-2.268 9.704,-5.025 14.675,-6.004c2.485,-0.49 4.988,-0.599 7.364,-0.2c1.56,0.272 2.975,1.052 4.027,2.231c3.483,3.828 7.129,7.564 10.92,11.247c7.183,6.965 15.274,13.985 23.527,20.697c-19.554,-9.36 -42.374,-13.659 -64.685,-8.326c-2.25,0.544 -6.893,1.959 -8.326,4.916c-1.071,2.195 0.272,5.986 2.14,8.471c3.211,4.263 7.093,7.963 11.791,10.485c7.455,4.027 14.765,4.081 24.361,1.342c8.163,-2.34 13.968,-6.258 23.944,-8.834c4.408,-1.143 9.215,-1.923 13.46,-2.05c3.029,-0.091 6.004,0.889 8.435,2.739c10.267,7.855 20.316,14.947 28.715,20.498c-5.442,-3.066 -19.718,-8.743 -30.112,-7.963c-10.847,0.816 -20.734,5.242 -30.311,10.394c-2.485,1.342 -5.224,3.156 -5.478,5.949c-0.218,2.395 1.505,4.499 3.21,6.204c3.447,3.447 7.292,6.567 11.737,8.544c4.444,1.959 9.559,2.703 14.239,1.342c6.857,-1.995 11.664,-8.018 17.541,-12.099c8.78,-6.095 20.498,-7.546 30.601,-4.226c1.216,0.399 2.377,0.979 3.429,1.705c6.929,4.807 12.843,9.287 17.922,13.477c-4.209,-1.034 -8.617,-1.197 -12.879,-0.489c-5.859,0.979 -10.902,3.156 -15.365,7.092c-1.505,1.324 -3.265,3.61 -3.265,5.859c0,4.227 6.222,5.696 8.254,5.642c2.213,-0.073 4.208,-0.508 6.204,-1.488c3.228,-1.578 6.53,-4.589 9.958,-7.02c2.594,-1.832 6.639,-4.19 12.226,-4.48c0.49,-0.018 0.98,0.145 1.343,0.471c14.003,12.716 19.899,22.566 22.964,30.765c1.615,-0.925 3.664,-1.959 5.859,-2.812c-4.897,-8.924 -11.954,-17.142 -20.57,-25.014Zm-158.213,-186.094c0.345,-1.378 0.744,-2.739 1.197,-4.081c0.145,-0.417 0.399,-0.762 0.744,-1.016c1.977,-1.433 5.551,-3.21 10.866,-2.902c-0,-0 -2.268,-1.796 -10.322,0.508c0.762,-1.814 1.615,-3.592 2.594,-5.297c0.2,-0.345 0.49,-0.598 0.835,-0.762c2.575,-1.179 7.419,-2.594 14.493,-1.396c0,-0 -4.39,-3.102 -13.206,-1.234c0.944,-1.36 1.96,-2.685 3.066,-3.936c0.381,-0.417 0.762,-0.853 1.143,-1.252c0.326,-0.345 0.744,-0.562 1.197,-0.617c3.338,-0.435 10.122,-0.925 16.743,1.198c-0,-0 -3.447,-3.447 -15.709,-2.739c2.322,-2.068 4.698,-3.792 7.437,-5.261c0.127,-0.072 0.272,-0.127 0.399,-0.163c0.127,-0.036 0.254,-0.073 0.381,-0.073c3.447,-0.363 9.233,-0.417 15.31,2.014c-0.073,-0.109 -2.467,-3.374 -12.117,-3.646c3.392,-1.361 6.983,-2.213 10.648,-2.413c1.487,-0.091 3.101,-0.036 4.317,0.835c1.959,1.414 2.031,4.371 1.197,6.657c-1.034,2.83 -3.12,5.17 -5.514,7.002c-2.395,1.832 -5.17,3.591 -7.855,4.934c-5.877,2.938 -11.972,6.076 -17.849,9.015c-2.485,1.252 -4.499,1.778 -6.603,3.592c-0.907,0.798 -2.703,2.557 -4.172,5.024c0.254,-1.542 0.562,-3.138 0.78,-3.991Zm-25.305,-20.806c-6.494,-3.228 -13.042,-7.31 -16.416,-13.731c-2.92,-5.569 -3.011,-12.553 -0.218,-18.194c0.78,-1.56 1.905,-3.138 3.592,-3.592c2.376,-0.635 5.732,1.923 7.437,3.683c1.742,1.814 3.392,3.736 4.952,5.75c-2.358,-0.798 -7.401,-2.322 -10.666,-1.742c0,0 7.583,1.778 12.861,5.134c0.327,0.199 0.599,0.472 0.817,0.798c1.342,1.995 2.612,4.045 3.791,6.131c-2.141,-1.016 -9.723,-4.317 -13.786,-2.467c-0,0 6.929,-0.09 14.529,4.553c0.399,0.236 0.726,0.581 0.944,0.998c1.052,1.995 2.013,4.027 2.92,6.059c-3.047,-1.579 -9.85,-4.535 -13.224,-1.579c0,0 7.492,-1.233 14.059,4.009c0.235,0.182 0.399,0.417 0.507,0.69c0.599,1.451 1.161,2.902 1.706,4.353c-1.56,-1.107 -4.735,-2.902 -8.417,-2.358c-0,-0 4.771,1.125 8.652,4.498c0.508,0.436 0.889,0.998 1.089,1.633c0.526,1.578 1.016,3.12 1.469,4.662c-4.898,-3.955 -10.902,-6.458 -16.598,-9.288Zm43.372,-79.033c1.778,1.306 3.12,3.718 3.809,5.822c2.522,7.528 1.887,23.564 -4.172,32.398c-5.188,7.564 -13.024,15.908 -18.52,19.953c0.653,-4.063 1.415,-8.072 2.285,-12.027c0.055,-0.29 0.218,-0.544 0.454,-0.725c2.431,-1.923 8.126,-6.095 12.063,-6.222c-0,0 -5.043,-0.762 -12.009,4.68c0.599,-2.576 1.234,-5.115 1.923,-7.619c0.109,-0.38 0.308,-0.743 0.562,-1.034c2.866,-3.12 10.322,-10.575 15.165,-8.924c-0.145,-0.091 -4.934,-3.447 -14.221,4.662c1.034,-3.429 1.904,-6.15 3.065,-9.433c0.163,-0.453 0.399,-0.871 0.708,-1.233c2.303,-2.758 7.002,-7.238 11.79,-5.206c0,-0 -4.244,-3.937 -10.883,1.959c2.285,-6.113 4.77,-11.954 7.401,-17.469c0.199,0.164 0.399,0.291 0.58,0.418Zm-26.792,39.126c-1.161,-7.219 -0.635,-15.654 2.34,-22.329c2.177,-4.862 5.496,-9.397 9.36,-13.043c2.032,-1.922 4.208,-3.41 6.857,-4.371c1.922,-0.69 4.226,-0.943 6.203,-0.363c-1.904,3.755 -3.718,7.673 -5.423,11.718c-2.105,-4.807 -6.385,-5.569 -6.385,-5.569c4.226,2.413 5.242,5.678 5.46,7.528l-0,0.145c-0,0.073 -0.019,0.145 -0.055,0.218c-1.832,4.462 -3.519,9.07 -5.079,13.804c-0.852,-1.85 -3.864,-7.564 -8.798,-8.126c0,-0 6.349,3.029 7.419,11.464c0.073,0.508 0.019,1.016 -0.127,1.505c-1.088,3.61 -2.086,7.274 -2.993,10.993c-3.047,-5.406 -6.802,-6.385 -6.911,-6.421c3.374,1.995 5.297,6.24 6.131,8.598c0.037,0.09 0.055,0.163 0.073,0.254c0.036,0.235 0.036,0.453 -0.018,0.689c-0.925,4.063 -1.723,8.181 -2.376,12.353c-2.431,-6.077 -4.717,-13.024 -5.678,-19.047Zm-11.41,87.415c-7.274,-2.104 -15.709,-2.921 -21.894,-7.292c-3.828,-2.703 -6.621,-6.694 -8.344,-11.029c-1.724,-4.335 -2.395,-8.507 -2.504,-13.187c-0.036,-1.452 0,-3.483 0.436,-4.862c0.435,-1.378 1.324,-2.703 2.63,-3.301c2.086,-0.962 6.077,0.544 8.362,2.231c0.345,0.254 0.69,0.508 1.016,0.762c-2.413,-0.472 -5.823,-0.925 -7.836,-0.399c-0,-0 4.861,0.435 9.124,1.723c0.435,0.127 0.852,0.308 1.233,0.562c0.146,0.091 0.291,0.2 0.436,0.309c3.12,2.467 5.369,4.607 8.235,7.346c-3.755,-0.689 -12.661,-2.086 -15.672,-0.308c-0,-0 8.616,-1.016 18.828,3.791c0.472,0.254 0.907,0.58 1.288,0.961c1.941,2.032 3.81,4.118 5.624,6.277c-3.084,-0.817 -12.281,-2.903 -17.922,-0.254c-0,-0 10.593,-0.762 19.101,2.539c0.689,0.272 1.306,0.726 1.759,1.306c2.104,2.667 4.118,5.442 6.095,8.326c-2.576,-1.161 -9.614,-3.954 -14.276,-2.285c0,-0 8.544,0.054 16.072,5.623c0.526,0.399 0.979,0.889 1.324,1.433c2.159,3.41 4.245,6.966 6.276,10.684c-5.514,-4.916 -12.044,-8.852 -19.391,-10.956Zm34.266,11.682c0.018,-0.2 0.09,-0.381 0.199,-0.544c3.03,-4.481 9.923,-7.927 9.923,-7.927c-4.118,0.399 -8.054,3.9 -9.705,5.568c0.199,-1.179 0.435,-2.34 0.707,-3.464c0.291,-1.179 0.581,-2.195 0.962,-3.338c0.054,-0.163 0.145,-0.308 0.254,-0.435c8.779,-9.796 18.339,-10.449 18.339,-10.449c-5.642,-1.342 -13.478,3.501 -16.362,5.479c1.034,-2.068 2.249,-3.991 3.664,-5.751c0.236,-0.29 0.526,-0.544 0.853,-0.743c3.609,-2.232 10.23,-5.642 16.942,-5.696c0,-0 -5.007,-2.123 -13.695,2.249c5.623,-4.843 9.65,-6.712 15.473,-9.07c1.269,-0.508 4.625,-1.342 6.022,-0.834c2.249,0.834 0.689,5.224 0.308,6.149c-3.682,8.635 -10.648,15.147 -17.795,21.35c-6.131,5.315 -12.606,10.666 -16.633,17.578c-0,-3.465 0.127,-6.712 0.544,-10.122Zm4.535,51.099c-3.411,1.469 -6.712,3.138 -10.086,4.698c-6.802,3.174 -14.167,5.932 -21.622,5.188c-7.456,-0.726 -14.258,-4.97 -19.373,-10.449c-5.116,-5.478 -8.072,-10.484 -11.301,-17.25c-0.853,-1.796 -1.977,-5.787 -0.943,-7.51c0.888,-1.487 2.43,-1.832 4.153,-2.032c4.626,-0.544 9.233,-0.217 13.787,0.672c-2.613,0.943 -9.868,3.863 -11.338,7.564c0,-0 7.365,-5.533 16.417,-6.313c0.072,0 0.127,0 0.199,-0.018c0.272,0 0.526,0.036 0.78,0.109c3.193,0.925 5.932,2.086 9.052,3.338c-4.154,0.925 -13.224,3.664 -16.163,10.466c0,0 7.057,-8.58 19.464,-8.816c0.163,0 0.327,0 0.49,0.037c0.272,0.036 0.526,0.108 0.78,0.217c0.127,0.055 0.254,0.109 0.381,0.163c2.83,1.216 5.623,2.486 8.417,3.773c-4.136,0.726 -13.369,3.211 -17.469,10.957c0,-0 8.018,-8.979 21.133,-8.907c0.49,0 0.997,0.109 1.433,0.327c2.031,0.943 4.263,1.995 6.584,3.083c-3.99,1.107 -13.441,4.445 -16.615,11.7c-0,0 8.616,-9.74 19.699,-9.849c0.562,-0 1.107,0.127 1.615,0.362c1.632,0.78 3.247,1.56 4.807,2.322c-2.558,0.164 -7.873,1.161 -11.392,6.277c0.163,-0.164 5.351,-5.134 12.788,-5.315c0.218,-0 0.436,0.018 0.635,0.09c0.127,0.037 0.236,0.091 0.363,0.146c1.324,0.671 2.358,1.197 3.555,1.832c-5.369,0.598 -8.598,2.448 -10.23,3.138Zm26.483,4.825c-1.015,-2.195 -1.687,-3.773 -2.394,-6.041c-0.109,-0.453 -0.181,-1.215 -0.127,-1.687c1.052,-9.831 8.199,-15.527 8.435,-15.708c-6.313,3.174 -8.87,10.738 -9.523,13.06c-0.526,-2.285 -0.853,-4.081 -1.071,-6.494c-0.036,-0.363 0,-0.744 0.091,-1.106c3.392,-12.136 12.553,-17.251 12.553,-17.251c-5.733,1.379 -11.247,9.705 -12.916,12.407c0,-1.541 0.037,-2.521 0.163,-4.135c0.037,-0.381 0.109,-0.762 0.236,-1.143c4.934,-13.968 16.616,-17.995 16.616,-17.995c-6.784,0.327 -13.713,8.725 -15.763,11.41c0.78,-3.41 1.905,-6.621 3.356,-9.795c0.072,-0.145 0.145,-0.29 0.235,-0.417c0.055,-0.073 0.109,-0.164 0.182,-0.236c6.24,-7.474 14.965,-11.755 14.965,-11.755c-3.9,0.454 -10.104,5.37 -13.079,7.909c2.504,-4.426 5.515,-8.417 8.635,-11.682c1.179,-1.233 3.41,-2.956 5.061,-2.467c1.451,0.436 2.249,2.395 2.739,3.701c1.306,3.537 1.197,7.437 0.689,11.174c-1.252,9.142 -5.932,17.903 -10.503,25.359c-4.317,7.074 -8.743,15.019 -8.58,22.892Zm9.306,34.9c-5.678,1.887 -10.811,5.061 -16.199,7.637c-5.387,2.576 -11.337,4.571 -17.269,3.809c-6.584,-0.834 -12.407,-5.042 -16.307,-10.394c-0.943,-1.287 -1.759,-3.301 -1.687,-4.879c0.091,-2.068 1.705,-3.465 3.537,-4.426c1.724,-0.907 3.628,-1.488 5.569,-1.869c-1.632,1.161 -4.045,3.084 -5.732,5.37c0.127,-0.109 4.372,-3.646 9.904,-5.841c0.309,-0.127 0.635,-0.2 0.962,-0.218c0.435,-0.036 1.052,-0.109 1.433,-0.127c2.884,-0.254 5.732,-0.363 8.58,-0.344c-2.776,1.578 -9.034,5.496 -12.879,10.829c0.163,-0.145 9.069,-8.109 18.266,-10.521c0.2,-0.054 0.399,-0.073 0.599,-0.073l0.199,0c2.467,0.164 4.608,0.418 7.056,0.78c-3.21,1.306 -9.577,4.59 -13.713,11.192c0.145,-0.145 8.108,-8.416 18.212,-10.212c0.435,-0.073 0.871,-0.091 1.306,-0.018c1.778,0.29 4.988,1.215 7.31,1.868c-2.829,0.78 -9.033,3.048 -12.715,8.344c0.217,-0.199 7.346,-6.929 17.867,-6.475c0.544,0.018 1.088,0.108 1.614,0.253c4.372,1.415 6.621,3.12 8.036,4.173c-5.351,-0.381 -10.575,0.018 -13.949,1.142Zm33.159,0.018c-1.669,-2.757 -2.975,-5.079 -4.335,-7.981c-0.164,-0.345 -0.236,-0.725 -0.2,-1.088c0.562,-7.383 4.535,-13.786 4.662,-13.986c-0.163,0.145 -5.152,4.862 -6.421,10.63c-0.653,-1.615 -1.252,-3.338 -1.76,-5.025c-0.181,-0.562 -0.254,-1.143 -0.2,-1.723c0.78,-11.265 8.816,-20.28 8.961,-20.425c-0.145,0.091 -7.237,4.825 -10.484,15.364c-0.2,-1.052 -0.363,-2.122 -0.49,-3.192c-0.236,-1.978 -0.363,-3.61 -0.236,-5.733c0,-0.108 0.018,-0.217 0.036,-0.326c0.037,-0.236 0.091,-0.472 0.182,-0.689c3.356,-8.453 8.852,-14.258 8.852,-14.258c-0,-0 -5.206,3.7 -8.471,10.067c1.397,-8.634 5.006,-17.232 8.816,-21.078c1.07,-1.088 2.847,-1.07 3.918,0.018c0.834,0.853 1.179,1.778 1.596,2.649c1.614,3.319 2.413,6.983 2.83,10.648c0.653,5.677 0.417,11.446 -0.69,17.051c-1.088,5.551 -3.029,10.902 -4.534,16.362c-1.125,4.135 -1.996,8.435 -2.032,12.715Zm12.77,29.133c-9.07,3.029 -15.89,10.629 -24.633,14.475c-3.411,1.506 -7.165,2.412 -10.866,1.941c-5.659,-0.708 -10.43,-4.517 -14.366,-8.653c-0.944,-0.997 -1.923,-2.213 -1.724,-3.573c0.218,-1.469 1.705,-2.358 3.03,-3.029c3.21,-1.633 6.439,-3.266 9.722,-4.735c-1.324,2.122 -2.993,5.478 -3.319,9.36c-0,0 2.503,-8.471 6.893,-10.902c1.143,-0.598 2.195,-0.852 3.319,-1.251c1.325,-0.454 2.649,-0.871 4.009,-1.252c-2.594,2.449 -7.89,8.181 -8.743,14.711c0,0 5.406,-11.192 14.312,-15.872c1.85,-0.544 3.701,-0.508 5.478,-0.544c-2.63,1.941 -8.326,6.675 -9.523,11.99c0,0 5.841,-10.049 15.455,-11.5c0.326,-0.055 0.671,-0.055 0.998,-0.019c0.671,0.091 2.013,0.309 3.918,0.835c-2.449,1.106 -7.419,3.991 -9.85,9.977c-0,-0 5.859,-8.054 13.822,-8.725c0.109,-0.019 0.236,-0 0.345,0.018c0.091,0.018 0.181,0.036 0.254,0.054c3.011,0.98 5.968,2.122 8.906,3.283c0.708,0.272 3.338,1.343 4.463,2.576c-3.9,-0.816 -8.072,-0.435 -11.9,0.835Zm25.74,-1.053c-0.979,-2.974 -1.106,-7.346 -1.106,-7.346c-0.526,2.576 -0.309,4.807 -0.127,5.895c-0.454,-0.616 -0.798,-1.124 -0.98,-1.433c-0.78,-1.288 -1.143,-1.941 -1.324,-2.267c-0.109,-0.182 -0.163,-0.399 -0.163,-0.617c-0.254,-5.968 3.192,-13.804 3.192,-13.804c-2.213,1.959 -4.281,9.07 -4.807,10.974c-1.324,-2.557 -1.85,-4.154 -2.013,-4.77c-0.055,-0.182 -0.073,-0.363 -0.036,-0.563c0.78,-5.841 4.299,-12.498 4.299,-12.498c-2.123,1.469 -4.245,7.111 -5.17,9.814c-0.454,-1.941 -0.708,-3.9 -0.708,-5.896c0,-2.612 0.454,-6.494 1.814,-8.725c1.361,-2.231 3.392,-3.7 6.005,-3.646c1.505,0.036 3.21,0.998 3.809,2.376c0.344,0.799 0.326,1.706 0.29,2.558c-0.254,6.222 -0.925,12.19 -0.871,18.412c0.019,2.884 0.182,5.768 0.581,8.616c0.272,2.05 1.124,6.004 1.796,8.272c-2.594,-2.794 -3.683,-4.154 -4.1,-4.698c-0.181,-0.2 -0.29,-0.418 -0.381,-0.654Zm10.43,27.99c-2.793,1.868 -5.641,3.7 -8.761,4.916c-3.138,1.215 -6.603,1.741 -9.868,0.943c-0.707,-0.163 -1.433,-0.436 -1.85,-1.016c-0.454,-0.617 -0.454,-1.469 -0.182,-2.195c0.254,-0.671 2.105,-4.535 10.122,-7.383c-0.925,1.143 -2.086,2.885 -2.793,5.116c0.072,-0.127 2.539,-3.882 7.02,-5.986c0.236,-0.109 0.471,-0.182 0.725,-0.218c0.635,-0.091 1.343,-0.163 2.086,-0.236c-0.87,0.889 -2.321,2.576 -3.156,4.626c0.091,-0.109 2.83,-3.32 6.44,-4.771c0.127,-0.054 0.272,-0.091 0.399,-0.127c0.145,-0.036 0.29,-0.054 0.435,-0.054c1.107,-0.018 1.905,0.072 3.066,0.163c-0.617,0.453 -1.506,1.306 -2.322,2.866c0.072,-0.073 1.778,-1.85 3.845,-2.576c0.109,-0.036 0.236,-0.054 0.345,-0.072c0.091,-0 0.182,-0 0.272,0.018c0.962,0.145 1.76,0.326 2.649,0.598c-2.25,2.141 -6.204,3.864 -8.472,5.388Zm19.482,-1.524c-1.596,-2.703 -2.049,-4.299 -2.829,-6.82c-0.345,-1.125 -0.69,-2.685 -0.78,-3.864c-0.091,-1.161 0.036,-2.376 0.507,-3.447c0.327,-0.761 0.853,-1.487 1.56,-1.904c0.726,-0.436 1.651,-0.544 2.395,-0.164c1.016,0.527 1.433,1.814 1.324,2.939c-0.109,1.143 -0.726,2.739 -1.034,3.846c-0.979,3.482 -1.052,6.929 -1.143,9.414Z" style="fill-rule:nonzero;"/><path d="M246.144,352.767c2.213,0.853 4.262,1.869 5.859,2.812c3.065,-8.217 8.961,-18.067 22.964,-30.765c0.363,-0.326 0.853,-0.507 1.343,-0.471c5.587,0.29 9.632,2.648 12.226,4.48c3.428,2.431 6.729,5.424 9.958,7.02c1.996,0.98 3.991,1.415 6.204,1.488c2.032,0.054 8.253,-1.415 8.253,-5.642c0,-2.249 -1.759,-4.535 -3.265,-5.859c-4.462,-3.936 -9.505,-6.113 -15.364,-7.092c-4.263,-0.708 -8.689,-0.526 -12.879,0.489c5.079,-4.19 10.993,-8.67 17.922,-13.477c1.052,-0.726 2.213,-1.306 3.428,-1.705c10.122,-3.32 21.822,-1.869 30.602,4.226c5.877,4.082 10.666,10.086 17.541,12.099c4.68,1.361 9.777,0.617 14.239,-1.342c4.444,-1.977 8.29,-5.097 11.736,-8.544c1.706,-1.705 3.429,-3.809 3.211,-6.203c-0.254,-2.812 -2.993,-4.626 -5.478,-5.95c-9.578,-5.152 -19.464,-9.578 -30.311,-10.394c-10.394,-0.798 -24.688,4.897 -30.112,7.963c8.399,-5.551 18.43,-12.643 28.715,-20.498c2.413,-1.85 5.388,-2.829 8.435,-2.739c4.245,0.127 9.07,0.907 13.46,2.05c9.976,2.576 15.781,6.494 23.944,8.834c9.595,2.757 16.888,2.703 24.361,-1.342c4.68,-2.54 8.58,-6.24 11.773,-10.485c1.868,-2.485 3.21,-6.276 2.14,-8.471c-1.433,-2.957 -6.077,-4.372 -8.326,-4.916c-22.312,-5.333 -45.131,-1.034 -64.686,8.326c8.272,-6.693 16.362,-13.732 23.527,-20.697c3.81,-3.682 7.456,-7.419 10.92,-11.247c1.071,-1.161 2.486,-1.959 4.027,-2.231c2.377,-0.417 4.88,-0.29 7.365,0.2c4.97,0.979 10.14,3.737 14.675,6.004c4.535,2.267 9.977,4.317 14.947,5.333c10.448,2.159 20.153,-1.506 28.152,-8.58c8,-7.074 13.424,-16.997 16.29,-27.282c0.544,-1.977 0.87,-3.573 0.109,-5.478c-0.726,-1.832 -4.172,-3.537 -8.508,-3.338c-23.835,1.143 -50.083,12.027 -67.715,24.344c8.344,-10.685 15.419,-22.294 20.988,-35.663c0.49,-1.197 1.342,-2.213 2.43,-2.902c8.508,-5.351 17.723,-9.596 27.319,-12.571c5.587,-1.723 10.666,-2.902 15.727,-5.823c6.439,-3.718 11.772,-10.121 14.312,-17.105c2.539,-6.984 3.41,-14.24 1.85,-21.514c-0.454,-2.068 -1.669,-4.879 -3.719,-5.46c-1.505,-0.435 -3.083,0.291 -4.462,1.034c-11.918,6.385 -22.094,15.709 -30.692,26.139c-7.056,8.562 -13.097,17.904 -18.775,27.446c0.109,-0.345 0.236,-0.708 0.345,-1.053c4.045,-12.443 6.24,-25.214 6.929,-37.947c0.418,-0.653 0.907,-1.325 1.415,-1.978c1.887,-2.376 4.1,-4.498 6.621,-6.131c4.118,-2.684 8.762,-4.426 13.278,-6.367c4.517,-1.923 9.034,-4.117 12.607,-7.473c4.318,-4.064 7.02,-9.723 7.71,-15.6c0.689,-5.877 -0.617,-11.936 -3.465,-17.142c-0.653,-1.197 -1.487,-2.431 -2.739,-2.939c-1.923,-0.798 -4.082,0.327 -5.787,1.524c-9.269,6.458 -15.999,16.053 -20.751,26.302c-2.685,5.787 -4.771,11.827 -6.585,17.922c-0.725,2.431 -1.27,5.478 -2.158,8.598c0.217,-6.294 0.09,-12.57 -0.363,-18.774c-0.145,-2.032 -0.073,-4.082 0.272,-6.095c1.687,-10.158 2.449,-12.407 4.317,-19.282c1.905,-6.984 3.755,-14.548 2.576,-22.965c-1.524,-10.902 -7.836,-21.767 -15.999,-27.844c-2.304,-1.723 -4.698,-2.939 -7.492,-3.555c-2.811,-0.635 -5.714,-0.49 -8.145,1.07c-2.013,1.288 -3.918,3.61 -4.915,5.786c-2.885,6.295 -3.247,12.879 -2.431,19.754c0.671,5.642 2.122,10.394 4.698,15.455c3.156,6.186 8.653,11.464 13.641,16.289c3.592,3.465 15.382,13.387 11.083,48.56c-1.142,-9.179 -4.934,-19.01 -10.775,-25.468c-7.11,-7.891 -17.268,-12.299 -27.898,-11.918c-3.338,0.127 -6.766,1.089 -8.272,4.064c-1.052,2.086 -0.635,4.661 0.327,6.784c1.832,4.009 5.006,6.947 8.616,9.469c4.789,3.355 10.031,5.695 15.382,8.072c4.971,2.213 9.324,3.791 13.786,6.911c3.229,2.267 6.549,5.895 7.782,9.523c0.109,0.29 0.145,0.599 0.091,0.907c-1.161,8.199 -3.011,16.398 -5.623,24.488c-2.123,6.549 -4.59,12.68 -7.347,18.466c0.381,-6.566 0.599,-13.405 -0.471,-19.735c-1.325,-7.837 -4.644,-15.111 -10.721,-20.643c-3.319,-3.029 -7.183,-5.388 -11.192,-7.383c-4.589,-2.267 -9.179,-4.335 -14.276,-4.644c-1.614,-0.09 -3.428,0.091 -4.48,1.325c-1.488,1.759 -0.218,4.988 0.87,7.02c5.841,11.01 13.768,19.391 22.947,26.628c2.412,1.905 5.95,4.898 8.036,7.166c3.047,3.283 5.296,9.341 5.423,15.146c0.037,1.687 -0.399,3.356 -1.233,4.825c-8.127,14.113 -18.285,26.194 -30.166,37.622c6.566,-10.757 10.285,-24.688 8.435,-37.005c-1.959,-13.006 -8.163,-24.216 -18.339,-32.561c-1.089,-0.888 -3.12,-2.176 -4.535,-2.158c-2.086,-0 -3.338,2.431 -4.263,4.317c-3.446,7.111 -2.122,15.02 0.744,22.384c2.866,7.365 6.657,13.677 10.557,20.552c3.936,6.93 8.689,16.036 3.573,27.645c-0.199,0.472 -0.507,0.889 -0.888,1.233c-11.682,10.739 -24.852,21.423 -37.313,30.819c7.999,-8.598 13.151,-19.826 14.384,-31.508c1.306,-12.262 -1.886,-24.543 -8.562,-34.918c-0.834,-1.307 -4.299,-5.551 -7.237,-4.753c-1.905,0.526 -3.392,2.63 -4.263,4.753c-4.698,11.464 -5.079,24.597 -1.923,35.372c1.324,4.553 3.628,9.36 4.608,14.003c1.414,6.748 1.142,14.748 -2.377,20.679c-0.217,0.363 -0.508,0.708 -0.834,0.98c-0.073,0.054 -0.127,0.109 -0.2,0.163c-8.144,5.986 -15.309,10.938 -21.821,15.201c-3.592,2.34 -7.111,4.68 -10.54,7.02c2.213,-3.138 5.061,-5.805 7.329,-8.906c5.442,-7.383 7.165,-17.36 5.151,-26.303c-0.526,-2.34 -3.12,-8.308 -8.743,-9.287c-3.591,-0.617 -6.331,1.378 -7.401,3.972c-1.832,4.481 0.417,20.135 0.436,26.158c0.036,6.548 -2.105,13.749 -5.079,19.554c-0.291,0.562 -0.708,1.052 -1.234,1.415c-6.04,4.335 -11.736,8.689 -16.942,13.133c1.288,-2.612 3.229,-5.641 3.7,-8.471c0.998,-5.823 -2.938,-8.308 -4.027,-8.689c-2.757,-0.961 -5.387,1.288 -5.714,4.19c-0.072,0.653 -0.072,1.306 -0.018,1.959c0.145,1.506 0.798,2.612 1.215,4.063c0.817,2.921 1.234,6.476 0.907,10.032c-0.018,0.272 -0.163,0.526 -0.362,0.707c-8.617,7.854 -15.673,16.072 -20.552,25.014Zm179.508,-207.135c-1.469,-2.467 -3.247,-4.226 -4.172,-5.024c-2.104,-1.814 -4.117,-2.34 -6.603,-3.592c-5.877,-2.939 -11.972,-6.077 -17.849,-9.015c-2.684,-1.361 -5.478,-3.102 -7.854,-4.934c-2.395,-1.832 -4.463,-4.172 -5.497,-7.002c-0.834,-2.268 -0.761,-5.224 1.198,-6.657c1.215,-0.871 2.829,-0.926 4.317,-0.835c3.664,0.218 7.256,1.052 10.648,2.413c-9.65,0.272 -12.045,3.537 -12.117,3.646c6.094,-2.431 11.863,-2.377 15.309,-2.014c0.127,0.018 0.254,0.037 0.381,0.073c0.145,0.036 0.272,0.091 0.399,0.163c2.721,1.469 5.116,3.193 7.438,5.261c-12.263,-0.708 -15.709,2.739 -15.709,2.739c6.621,-2.105 13.405,-1.633 16.743,-1.198c0.453,0.055 0.888,0.272 1.197,0.617c0.399,0.417 0.78,0.835 1.143,1.252c1.088,1.251 2.122,2.576 3.065,3.936c-8.816,-1.868 -13.205,1.234 -13.205,1.234c7.092,-1.198 11.935,0.217 14.493,1.396c0.345,0.164 0.653,0.436 0.834,0.762c0.962,1.705 1.833,3.483 2.594,5.297c-8.072,-2.286 -10.321,-0.508 -10.321,-0.508c5.333,-0.308 8.888,1.469 10.866,2.902c0.344,0.254 0.616,0.617 0.743,1.016c0.454,1.342 0.853,2.703 1.197,4.081c0.236,0.853 0.545,2.449 0.762,3.991Zm7.927,-15.509c0.454,-1.524 0.944,-3.084 1.47,-4.662c0.217,-0.635 0.598,-1.179 1.088,-1.633c3.882,-3.373 8.653,-4.498 8.653,-4.498c-3.701,-0.544 -6.875,1.251 -8.417,2.358c0.544,-1.451 1.106,-2.902 1.705,-4.353c0.109,-0.273 0.29,-0.508 0.508,-0.69c6.566,-5.242 14.058,-4.009 14.058,-4.009c-3.374,-2.956 -10.176,0 -13.224,1.579c0.907,-2.032 1.887,-4.064 2.921,-6.059c0.217,-0.417 0.544,-0.762 0.943,-0.998c7.582,-4.643 14.53,-4.553 14.53,-4.553c-4.064,-1.85 -11.646,1.451 -13.786,2.467c1.179,-2.086 2.449,-4.136 3.791,-6.131c0.218,-0.326 0.49,-0.58 0.816,-0.798c5.279,-3.356 12.861,-5.134 12.861,-5.134c-3.247,-0.58 -8.308,0.944 -10.666,1.742c1.56,-2.014 3.193,-3.936 4.952,-5.75c1.705,-1.76 5.061,-4.336 7.437,-3.683c1.687,0.454 2.812,2.032 3.592,3.592c2.793,5.641 2.721,12.625 -0.218,18.194c-3.374,6.421 -9.922,10.503 -16.416,13.731c-5.66,2.83 -11.664,5.333 -16.598,9.288Zm-26.157,-88.702c2.63,5.514 5.115,11.355 7.401,17.468c-6.639,-5.895 -10.884,-1.959 -10.884,-1.959c4.789,-2.032 9.487,2.449 11.791,5.206c0.308,0.363 0.544,0.78 0.707,1.233c1.161,3.302 2.032,6.005 3.066,9.433c-9.269,-8.108 -14.076,-4.771 -14.221,-4.662c4.825,-1.632 12.298,5.805 15.164,8.925c0.272,0.29 0.472,0.653 0.563,1.034c0.689,2.503 1.324,5.043 1.922,7.618c-6.965,-5.442 -12.008,-4.68 -12.008,-4.68c3.936,0.127 9.632,4.299 12.063,6.222c0.236,0.182 0.381,0.436 0.453,0.726c0.871,3.954 1.651,7.963 2.286,12.026c-5.496,-4.045 -13.333,-12.407 -18.521,-19.971c-6.058,-8.834 -6.693,-24.87 -4.172,-32.398c0.708,-2.086 2.032,-4.516 3.81,-5.822c0.181,-0.145 0.381,-0.272 0.58,-0.399Zm20.552,58.554c-0.671,-4.172 -1.469,-8.29 -2.376,-12.353c-0.054,-0.218 -0.054,-0.454 -0.018,-0.689c0.018,-0.091 0.036,-0.164 0.072,-0.254c0.835,-2.358 2.758,-6.603 6.132,-8.598c-0.127,0.036 -3.864,1.015 -6.912,6.421c-0.907,-3.719 -1.904,-7.401 -2.993,-10.993c-0.145,-0.489 -0.199,-0.997 -0.127,-1.505c1.071,-8.435 7.419,-11.464 7.419,-11.464c-4.934,0.58 -7.945,6.294 -8.797,8.126c-1.56,-4.734 -3.265,-9.36 -5.079,-13.804c-0.037,-0.073 -0.037,-0.145 -0.055,-0.218l0,-0.145c0.218,-1.832 1.234,-5.097 5.46,-7.528c0,0 -4.281,0.744 -6.385,5.569c-1.723,-4.045 -3.537,-7.963 -5.424,-11.718c1.978,-0.562 4.281,-0.327 6.204,0.363c2.63,0.961 4.807,2.449 6.857,4.371c3.864,3.646 7.201,8.199 9.36,13.043c2.975,6.675 3.501,15.11 2.34,22.329c-0.998,6.023 -3.283,12.97 -5.678,19.047Zm-2.34,79.306c2.032,-3.719 4.118,-7.274 6.276,-10.684c0.345,-0.562 0.799,-1.052 1.325,-1.433c7.528,-5.569 16.071,-5.623 16.071,-5.623c-4.643,-1.651 -11.682,1.142 -14.276,2.285c1.96,-2.884 3.991,-5.659 6.095,-8.326c0.454,-0.58 1.071,-1.034 1.76,-1.306c8.507,-3.301 19.101,-2.539 19.101,-2.539c-5.642,-2.667 -14.856,-0.581 -17.922,0.253c1.814,-2.158 3.682,-4.244 5.623,-6.276c0.363,-0.381 0.798,-0.707 1.288,-0.961c10.213,-4.807 18.829,-3.791 18.829,-3.791c-2.993,-1.778 -11.918,-0.381 -15.673,0.308c2.866,-2.721 5.134,-4.861 8.236,-7.347c0.145,-0.108 0.29,-0.217 0.435,-0.308c0.381,-0.236 0.798,-0.417 1.234,-0.562c4.262,-1.288 9.124,-1.723 9.124,-1.723c-2.014,-0.545 -5.424,-0.073 -7.837,0.399c0.345,-0.254 0.672,-0.508 1.016,-0.762c2.286,-1.705 6.277,-3.193 8.363,-2.231c1.324,0.598 2.213,1.922 2.63,3.301c0.435,1.379 0.471,3.41 0.435,4.861c-0.109,4.68 -0.78,8.834 -2.503,13.188c-1.723,4.353 -4.517,8.344 -8.344,11.029c-6.186,4.353 -14.621,5.188 -21.895,7.274c-7.328,2.14 -13.876,6.076 -19.391,10.974Zm-14.294,10.866c-4.027,-6.912 -10.521,-12.263 -16.634,-17.578c-7.165,-6.221 -14.112,-12.715 -17.795,-21.35c-0.38,-0.907 -1.94,-5.315 0.309,-6.149c1.397,-0.508 4.752,0.308 6.022,0.834c5.823,2.358 9.832,4.227 15.473,9.07c-8.689,-4.372 -13.695,-2.249 -13.695,-2.249c6.711,0.036 13.332,3.464 16.942,5.696c0.327,0.199 0.617,0.453 0.853,0.743c1.415,1.76 2.63,3.701 3.664,5.751c-2.884,-1.978 -10.721,-6.821 -16.362,-5.479c0,0 9.56,0.672 18.339,10.449c0.109,0.127 0.2,0.272 0.254,0.435c0.381,1.143 0.671,2.141 0.961,3.338c0.273,1.124 0.508,2.267 0.708,3.464c-1.651,-1.668 -5.587,-5.169 -9.705,-5.568c0,-0 6.911,3.446 9.923,7.927c0.108,0.163 0.181,0.344 0.199,0.544c0.399,3.41 0.526,6.657 0.544,10.122Zm-15.364,37.839c1.215,-0.635 2.231,-1.161 3.555,-1.832c0.109,-0.055 0.236,-0.109 0.363,-0.146c0.2,-0.054 0.417,-0.09 0.635,-0.09c7.437,0.181 12.625,5.151 12.788,5.315c-3.519,-5.116 -8.833,-6.113 -11.391,-6.277c1.56,-0.78 3.192,-1.56 4.807,-2.322c0.508,-0.235 1.052,-0.362 1.614,-0.362c11.083,0.109 19.7,9.849 19.7,9.849c-3.175,-7.273 -12.625,-10.593 -16.616,-11.7c2.322,-1.088 4.553,-2.122 6.585,-3.083c0.453,-0.218 0.943,-0.327 1.433,-0.327c13.115,-0.072 21.132,8.907 21.132,8.907c-4.099,-7.764 -13.332,-10.231 -17.468,-10.957c2.793,-1.287 5.605,-2.539 8.417,-3.773c0.127,-0.054 0.254,-0.108 0.38,-0.163c0.254,-0.109 0.508,-0.181 0.78,-0.217c0.164,-0.019 0.327,-0.037 0.49,-0.037c12.426,0.236 19.464,8.816 19.464,8.816c-2.957,-6.784 -12.008,-9.541 -16.162,-10.466c3.138,-1.252 5.859,-2.413 9.051,-3.338c0.254,-0.073 0.526,-0.109 0.78,-0.109c0.073,0 0.127,0 0.2,0.018c9.033,0.78 16.416,6.313 16.416,6.313c-1.469,-3.701 -8.725,-6.621 -11.337,-7.564c4.553,-0.889 9.16,-1.216 13.786,-0.672c1.723,0.2 3.265,0.545 4.154,2.032c1.034,1.705 -0.091,5.696 -0.943,7.51c-3.229,6.766 -6.186,11.772 -11.301,17.25c-5.116,5.479 -11.918,9.723 -19.373,10.449c-7.474,0.744 -14.82,-2.032 -21.623,-5.188c-3.355,-1.56 -6.675,-3.229 -10.085,-4.698c-1.597,-0.69 -4.843,-2.54 -10.231,-3.138Zm-24.797,-14.929c-4.553,-7.474 -9.251,-16.217 -10.502,-25.359c-0.508,-3.737 -0.635,-7.637 0.689,-11.174c0.49,-1.306 1.288,-3.265 2.739,-3.701c1.632,-0.489 3.882,1.234 5.061,2.467c3.138,3.265 6.131,7.256 8.634,11.682c-2.975,-2.539 -9.196,-7.455 -13.078,-7.909c-0,0 8.725,4.281 14.965,11.755c0.054,0.072 0.127,0.145 0.181,0.236c0.091,0.127 0.163,0.272 0.236,0.417c1.451,3.174 2.576,6.385 3.356,9.795c-2.05,-2.685 -8.961,-11.083 -15.763,-11.41c-0,0 11.681,4.027 16.615,17.995c0.127,0.363 0.2,0.743 0.236,1.143c0.127,1.614 0.163,2.594 0.163,4.135c-1.668,-2.702 -7.183,-11.028 -12.915,-12.407c0,-0 9.161,5.133 12.553,17.251c0.108,0.362 0.127,0.725 0.09,1.106c-0.217,2.413 -0.544,4.209 -1.07,6.494c-0.653,-2.304 -3.211,-9.886 -9.523,-13.06c0.236,0.181 7.364,5.877 8.435,15.708c0.054,0.472 -0,1.216 -0.127,1.687c-0.708,2.286 -1.361,3.846 -2.395,6.041c0.145,-7.873 -4.262,-15.818 -8.58,-22.892Zm-14.62,56.595c1.415,-1.052 3.664,-2.757 8.036,-4.172c0.526,-0.145 1.07,-0.218 1.614,-0.254c10.521,-0.453 17.65,6.276 17.868,6.476c-3.683,-5.297 -9.905,-7.546 -12.716,-8.344c2.303,-0.653 5.514,-1.597 7.31,-1.869c0.435,-0.072 0.871,-0.054 1.306,0.018c10.086,1.778 18.067,10.068 18.212,10.213c-4.136,-6.621 -10.503,-9.886 -13.713,-11.192c2.448,-0.363 4.589,-0.617 7.056,-0.78l0.199,-0c0.2,-0 0.399,0.018 0.599,0.073c9.197,2.394 18.103,10.375 18.267,10.52c-3.864,-5.333 -10.104,-9.251 -12.898,-10.829c2.848,-0.018 5.696,0.091 8.58,0.345c0.363,0.036 0.998,0.09 1.433,0.127c0.327,0.036 0.653,0.109 0.962,0.217c5.532,2.195 9.759,5.733 9.904,5.841c-1.687,-2.267 -4.1,-4.208 -5.732,-5.369c1.941,0.399 3.845,0.961 5.569,1.868c1.832,0.98 3.446,2.359 3.537,4.426c0.072,1.597 -0.744,3.592 -1.687,4.88c-3.9,5.369 -9.723,9.578 -16.308,10.394c-5.931,0.744 -11.863,-1.252 -17.268,-3.809c-5.406,-2.558 -10.521,-5.751 -16.199,-7.637c-3.41,-1.07 -8.653,-1.469 -13.931,-1.143Zm-21.314,-11.537c-1.488,-5.46 -3.428,-10.811 -4.535,-16.361c-1.106,-5.606 -1.342,-11.374 -0.689,-17.052c0.417,-3.664 1.215,-7.328 2.83,-10.648c0.417,-0.852 0.761,-1.795 1.596,-2.648c1.07,-1.088 2.848,-1.106 3.918,-0.018c3.809,3.846 7.437,12.444 8.834,21.078c-3.247,-6.367 -8.471,-10.067 -8.471,-10.067c-0,-0 5.496,5.822 8.852,14.257c0.091,0.218 0.145,0.454 0.181,0.69c0.018,0.108 0.036,0.217 0.036,0.326c0.127,2.141 0,3.755 -0.235,5.732c-0.127,1.07 -0.291,2.141 -0.49,3.193c-3.265,-10.539 -10.34,-15.274 -10.485,-15.364c0.127,0.145 8.181,9.16 8.961,20.425c0.036,0.58 -0.036,1.161 -0.199,1.723c-0.526,1.687 -1.107,3.41 -1.76,5.025c-1.27,-5.769 -6.276,-10.485 -6.421,-10.63c0.127,0.199 4.099,6.603 4.662,13.985c0.036,0.381 -0.037,0.762 -0.2,1.089c-1.36,2.902 -2.666,5.242 -4.335,7.981c-0.037,-4.244 -0.907,-8.544 -2.05,-12.716Zm-22.638,41.068c1.124,-1.233 3.755,-2.303 4.462,-2.576c2.939,-1.142 5.895,-2.303 8.907,-3.283c0.09,-0.018 0.163,-0.054 0.254,-0.054c0.108,-0.018 0.235,-0.018 0.344,-0.018c7.963,0.671 13.823,8.725 13.823,8.725c-2.431,-5.968 -7.401,-8.87 -9.85,-9.977c1.923,-0.526 3.247,-0.744 3.918,-0.834c0.326,-0.037 0.671,-0.037 0.998,0.018c9.614,1.451 15.454,11.5 15.454,11.5c-1.179,-5.333 -6.874,-10.049 -9.523,-11.99c1.76,0.036 3.628,-0 5.478,0.544c8.907,4.68 14.312,15.872 14.312,15.872c-0.852,-6.53 -6.149,-12.262 -8.743,-14.711c1.343,0.363 2.685,0.798 4.009,1.252c1.125,0.399 2.177,0.653 3.32,1.251c4.407,2.431 6.893,10.902 6.893,10.902c-0.327,-3.9 -1.996,-7.256 -3.32,-9.36c3.283,1.47 6.512,3.102 9.723,4.735c1.324,0.671 2.793,1.56 3.029,3.029c0.2,1.36 -0.78,2.576 -1.723,3.573c-3.936,4.136 -8.707,7.946 -14.367,8.653c-3.7,0.472 -7.455,-0.453 -10.865,-1.941c-8.743,-3.846 -15.582,-11.446 -24.634,-14.475c-3.809,-1.288 -7.981,-1.669 -11.899,-0.835Zm-14.185,0.418c-0.418,0.544 -1.488,1.886 -4.1,4.698c0.671,-2.268 1.524,-6.204 1.796,-8.272c0.399,-2.848 0.562,-5.732 0.58,-8.616c0.055,-6.222 -0.616,-12.19 -0.87,-18.412c-0.037,-0.871 -0.055,-1.778 0.29,-2.558c0.599,-1.378 2.304,-2.358 3.809,-2.376c2.612,-0.054 4.644,1.415 6.004,3.646c1.361,2.231 1.814,6.113 1.814,8.725c0,1.996 -0.254,3.955 -0.707,5.896c-0.925,-2.703 -3.047,-8.345 -5.17,-9.814c0,0 3.519,6.657 4.299,12.498c0.018,0.182 0.018,0.381 -0.036,0.563c-0.181,0.616 -0.689,2.213 -2.013,4.77c-0.527,-1.904 -2.594,-9.015 -4.807,-10.974c-0,-0 3.446,7.836 3.192,13.804c0,0.218 -0.072,0.417 -0.163,0.617c-0.182,0.326 -0.544,0.979 -1.324,2.267c-0.182,0.309 -0.526,0.817 -0.98,1.433c0.163,-1.088 0.381,-3.337 -0.127,-5.895c0,-0 -0.127,4.372 -1.106,7.346c-0.109,0.236 -0.218,0.454 -0.381,0.654Zm-18.539,21.966c0.889,-0.272 1.669,-0.453 2.648,-0.598c0.091,-0.018 0.182,-0.018 0.273,-0.018c0.127,-0 0.235,0.036 0.344,0.072c2.068,0.708 3.773,2.504 3.846,2.576c-0.816,-1.56 -1.705,-2.412 -2.322,-2.866c1.161,-0.091 1.959,-0.181 3.066,-0.163c0.145,-0 0.29,0.018 0.435,0.054c0.145,0.036 0.272,0.073 0.399,0.127c3.628,1.451 6.367,4.68 6.439,4.771c-0.834,-2.05 -2.285,-3.737 -3.156,-4.626c0.744,0.073 1.451,0.164 2.086,0.236c0.254,0.036 0.49,0.109 0.726,0.218c4.48,2.104 6.947,5.859 7.02,5.986c-0.689,-2.213 -1.85,-3.955 -2.794,-5.116c8.018,2.848 9.868,6.712 10.122,7.383c0.272,0.708 0.254,1.578 -0.181,2.195c-0.417,0.581 -1.161,0.853 -1.85,1.016c-3.266,0.798 -6.73,0.254 -9.868,-0.943c-3.138,-1.216 -5.968,-3.048 -8.762,-4.916c-2.285,-1.542 -6.24,-3.265 -8.471,-5.388Zm-12.172,-5.55c-0.308,-1.107 -0.925,-2.703 -1.033,-3.846c-0.109,-1.143 0.308,-2.43 1.324,-2.938c0.743,-0.381 1.687,-0.272 2.394,0.163c0.708,0.435 1.234,1.143 1.56,1.905c0.454,1.07 0.599,2.267 0.508,3.446c-0.091,1.161 -0.435,2.739 -0.78,3.864c-0.78,2.539 -1.233,4.117 -2.83,6.82c-0.072,-2.503 -0.163,-5.95 -1.143,-9.414Z" style="fill-rule:nonzero;"/></g><path d="M280.48,70.567l0,-0l-9.34,0l-41.937,0.001l0,1.573l13.408,-0.002l13.25,44.626l-21.553,75.174l-33.878,-119.797c-0,-0 16.946,-0.001 16.946,-0.001l0,-1.574l-58.367,0.001l-0,1.573l13.407,-0.002l46.545,156.761l5.513,0l32.06,-109.869l32.621,109.869l5.513,0l45.744,-156.763l10.263,0.005l0,-1.575l-27.607,0.001l0.001,1.57l15.779,0.005l-34.345,119.796l-33.878,-119.797l8.834,-0.001l1.022,0.001l-0,-0.001l7.09,-0l-0,-1.574l-7.091,-0Z"/></g></svg>